<?xml version="1.0" standalone="no"?>
<!DOCTYPE svg PUBLIC "-//W3C//DTD SVG 20010904//EN"
 "http://www.w3.org/TR/2001/REC-SVG-20010904/DTD/svg10.dtd">
<svg version="1.0" xmlns="http://www.w3.org/2000/svg"
 width="348.000000pt" height="479.000000pt" viewBox="0 0 348.000000 479.000000"
 preserveAspectRatio="xMidYMid meet">
<metadata>
Created by potrace 1.16, written by Peter Selinger 2001-2019
</metadata>
<g transform="translate(0.000000,479.000000) scale(0.100000,-0.100000)"
fill="#000000" stroke="none">
<path d="M2330 4768 c-75 -38 -115 -125 -140 -304 -5 -40 -14 -84 -20 -99
l-10 -28 -353 4 -353 4 -33 55 c-64 110 -187 275 -220 297 -48 32 -71 36 -122
23 -60 -17 -104 -65 -130 -148 -28 -87 -36 -288 -19 -443 l12 -111 -44 -47
c-73 -76 -219 -268 -230 -303 -2 -6 -26 1 -57 16 -75 39 -99 47 -106 36 -3 -5
28 -25 70 -44 l75 -35 -51 -97 -51 -98 -179 3 c-124 2 -179 -1 -179 -8 0 -7
22 -11 53 -11 30 0 108 -3 174 -6 l120 -7 -27 -71 c-15 -39 -31 -85 -34 -103
-4 -17 -13 -36 -19 -41 -7 -5 -83 -19 -170 -32 -99 -15 -156 -27 -154 -34 4
-13 -2 -13 176 14 73 11 136 19 138 16 6 -6 -30 -74 -81 -154 -54 -84 -122
-219 -215 -428 -74 -167 -82 -207 -60 -269 10 -27 8 -43 -15 -111 -46 -132
-69 -258 -69 -379 0 -160 29 -260 109 -379 35 -54 42 -71 33 -82 -18 -22 -3
-75 40 -140 44 -68 97 -120 126 -126 15 -2 22 -17 32 -66 24 -122 85 -328 118
-405 78 -182 184 -305 321 -374 71 -35 78 -42 62 -52 -21 -13 -24 -61 -6 -79
7 -7 31 -12 53 -12 43 0 179 -32 230 -55 87 -38 258 -58 283 -33 7 7 12 25 12
41 0 28 1 29 48 26 26 -2 96 0 155 5 98 7 109 10 124 32 19 30 27 30 41 0 10
-23 14 -23 177 -28 153 -5 167 -7 186 -27 19 -20 26 -21 172 -16 283 10 290
11 342 59 31 29 31 43 3 73 l-21 23 32 11 c18 7 61 26 94 44 34 18 76 35 92
39 110 26 129 41 105 85 -9 17 -4 33 28 88 92 163 167 353 179 451 3 31 21 90
39 130 27 60 37 72 52 68 41 -13 66 38 77 154 1 20 14 53 28 74 114 167 133
532 47 878 -29 116 -182 636 -235 796 -37 113 -41 132 -27 132 9 0 70 -9 135
-19 65 -10 120 -14 123 -9 8 12 -6 15 -151 38 -71 11 -131 23 -134 25 -5 6
-79 180 -88 206 -4 14 10 17 94 22 54 4 126 7 161 7 37 0 62 4 62 11 0 7 -54
9 -169 7 l-170 -3 -15 32 c-8 18 -34 62 -56 99 -22 37 -39 68 -37 70 2 2 34
17 71 34 43 20 65 35 59 41 -6 6 -34 -2 -78 -21 -37 -17 -71 -28 -75 -23 -3 4
-28 39 -55 77 -67 96 -163 205 -190 218 -22 10 -23 15 -29 207 -8 253 -20 362
-51 459 -27 85 -56 121 -114 141 -49 16 -71 14 -121 -11z m-1111 -925 c67 -50
89 -128 55 -199 -53 -111 -220 -110 -274 1 -31 64 -23 123 23 174 49 53 141
64 196 24z m1231 4 c108 -57 108 -211 0 -268 -147 -79 -299 105 -193 232 52
61 121 74 193 36z m-400 -837 c272 -55 502 -180 706 -384 207 -208 339 -461
388 -745 20 -119 21 -336 1 -456 -93 -571 -525 -1018 -1105 -1142 -120 -25
-420 -25 -540 0 -433 92 -801 379 -984 768 -88 187 -124 331 -133 539 -27 646
385 1217 1007 1396 201 57 451 67 660 24z"/>
<path d="M1082 3767 c-40 -43 -25 -107 29 -126 63 -22 120 35 98 98 -19 55
-88 70 -127 28z"/>
<path d="M2322 3767 c-40 -42 -25 -107 28 -126 56 -19 104 16 104 76 0 67 -86
99 -132 50z"/>
<path d="M1733 2705 c-36 -16 -119 -90 -164 -147 -25 -31 -28 -41 -19 -58 17
-32 60 -25 115 18 43 33 54 37 104 36 31 0 76 -7 100 -15 41 -13 44 -13 62 10
17 21 17 26 4 59 -9 21 -33 54 -55 75 -44 41 -88 48 -147 22z"/>
<path d="M2301 2648 c-62 -17 -123 -69 -210 -181 -12 -15 -11 -20 4 -37 22
-25 42 -25 76 -2 79 53 96 61 130 67 25 4 47 1 69 -10 44 -23 90 -22 107 0 15
22 10 46 -23 97 -40 63 -88 83 -153 66z"/>
<path d="M1155 2586 c-53 -24 -185 -154 -185 -181 0 -8 11 -22 24 -30 27 -18
41 -13 115 40 43 32 96 42 135 25 76 -31 126 -21 126 24 0 37 -57 116 -95 132
-46 19 -61 18 -120 -10z"/>
<path d="M2063 2295 c-37 -16 -119 -90 -165 -148 -29 -36 -30 -39 -13 -57 26
-29 56 -25 107 15 59 46 119 58 173 33 52 -23 78 -23 101 3 18 20 18 21 -11
76 -45 86 -111 113 -192 78z"/>
<path d="M811 2240 c-46 -21 -165 -137 -176 -171 -17 -52 48 -64 105 -19 68
54 111 61 190 33 39 -14 53 -15 74 -5 35 15 34 46 -3 104 -49 78 -107 95 -190
58z"/>
<path d="M1422 2239 c-45 -23 -149 -122 -172 -163 -30 -58 45 -77 103 -26 59
51 127 64 183 35 54 -28 104 -15 104 27 0 27 -34 89 -63 117 -37 34 -100 38
-155 10z"/>
<path d="M2623 2239 c-44 -22 -183 -160 -183 -182 0 -45 66 -49 113 -7 58 51
134 65 187 35 49 -28 100 -14 100 27 0 30 -37 93 -70 122 -39 32 -89 34 -147
5z"/>
</g>
</svg>
